<svg xmlns="http://www.w3.org/2000/svg" xmlns:xlink="http://www.w3.org/1999/xlink" viewBox="0 0 512 512"><defs><style>.cls-1,.cls-2{fill:#fff;}.cls-1,.cls-4{fill-rule:evenodd;}.cls-2{fill-opacity:0;}.cls-3{mask:url(#mask);}.cls-4{fill:#0069d8;}</style><mask id="mask" x="40.01" y="6.17" width="432.19" height="499.72" maskUnits="userSpaceOnUse"><g id="mask-2"><polygon id="path-1" class="cls-1" points="40.01 6.17 472.19 6.17 472.19 505.89 40.01 505.89 40.01 6.17"/></g></mask></defs><title>favicon_1</title><g id="Calque_2" data-name="Calque 2"><g id="Calque_1-2" data-name="Calque 1"><g id="Design---système"><g id="favicon"><rect id="Rectangle" class="cls-2" width="512" height="512"/><g id="Group-6"><g id="Group-3"><g class="cls-3"><path id="Fill-1" class="cls-4" d="M255.63,505.89a51.13,51.13,0,0,1-27.56-7.95L66,400.15a50.26,50.26,0,0,1-10.07-7.94A54.46,54.46,0,0,1,40,353.88V158.18a52.33,52.33,0,0,1,4.89-22.12A51.34,51.34,0,0,1,55.8,120l.45-.47a48.58,48.58,0,0,1,9.84-7.63L226.86,15.44a52.06,52.06,0,0,1,57.32-1.31l162,97.73a51.09,51.09,0,0,1,9.88,7.77,51.86,51.86,0,0,1,12.26,18.58,54,54,0,0,1,3.86,20v195.7a53.62,53.62,0,0,1-26.59,46.69L285.39,496.68a52.56,52.56,0,0,1-29.76,9.21m54.87-349.4c-.71-.42-1.4-.89-2.1-1.35L305.19,153"/></g></g><path id="Fill-4" class="cls-1" d="M126.07,257.53c0,70.52,53.11,123.47,129.52,123.47,55.59,0,97.23-33.26,130.72-80l-29.38-35.3c-30.24,30.34-56,55.37-98.5,55.37-41.23,0-65.78-29.52-65.78-65.62,0-35.28,25.76-64,70.3-64A160.9,160.9,0,0,1,292.76,194l-29.38-62.77A85,85,0,0,0,248.66,130c-64.59,0-122.59,58.23-122.59,127.55"/></g></g></g></g></g></svg>